# xmcd
#
# Track frame offsets:
#	150
#	12487
#	25130
#	40985
#	52437
#	62967
#	77325
#	95680
#	108022
#	120505
#	140885
#	153417
#	165247
#	177615
#
# Disc length: 2547
#
# Revision: 1
# Processed by: cddbd v1.5.1PL0 Copyright (c) Steve Scherf et al.
# Submitted via: VisiTrax 2.9.5.180 - For more info visit www.synapsa.com
# Normalized: r0:DSETVAR1
#
DISCID=bc09f10e
DTITLE=Various Artist - Mr. Music Country 04-94
DYEAR=1994
DGENRE=
TTITLE0=Confederate Railroad - She took it like a man
TTITLE1=John Michael Montgomery - Be my baby tonight
TTITLE2=Shawn Camp - I'm just passin' through
TTITLE3=Erika Stolt - Shadows of my mind
TTITLE4=Billy Hill - Too much month at the end of the money
TTITLE5=Tracy Lawrence - Back to back
TTITLE6=Pam Tillis - Those memories of you
TTITLE7=Guy Clark - Baton Rouge
TTITLE8=Mark O'Connor - Doug Kershaw - Lionel Cartwright - Clinton Gregory - Diggy Diggy Lou
TTITLE9=Hank Williams Jr. - Be careful who you love (Arthur's song)
TTITLE10=Deanna Cox - Texas side step
TTITLE11=Jim Purdy - Has anyone gotten over you
TTITLE12=Highway 101 - River of Texas
TTITLE13=Jason Cooper - The songs that grandma loved
EXTD=
EXTT0=
EXTT1=
EXTT2=
EXTT3=
EXTT4=
EXTT5=
EXTT6=
EXTT7=
EXTT8=
EXTT9=
EXTT10=
EXTT11=
EXTT12=
EXTT13=
PLAYORDER=
